<svg width="25" height="34" viewBox="0 0 25 34" fill="none" xmlns="http://www.w3.org/2000/svg">
<path d="M21.875 11.3333H20.3125V8.09524C20.3125 3.62667 16.8125 0 12.5 0C8.1875 0 4.6875 3.62667 4.6875 8.09524V11.3333H3.125C1.40625 11.3333 0 12.7905 0 14.5714V30.7619C0 32.5429 1.40625 34 3.125 34H21.875C23.5938 34 25 32.5429 25 30.7619V14.5714C25 12.7905 23.5938 11.3333 21.875 11.3333ZM12.5 25.9048C10.7812 25.9048 9.375 24.4476 9.375 22.6667C9.375 20.8857 10.7812 19.4286 12.5 19.4286C14.2188 19.4286 15.625 20.8857 15.625 22.6667C15.625 24.4476 14.2188 25.9048 12.5 25.9048ZM17.3438 11.3333H7.65625V8.09524C7.65625 5.32667 9.82812 3.07619 12.5 3.07619C15.1719 3.07619 17.3438 5.32667 17.3438 8.09524V11.3333Z" fill="black"/>
</svg>
