<?xml version="1.0" encoding="UTF-8" standalone="no"?>
<svg
   width="22"
   height="22"
   viewBox="0 0 22 22"
   fill="none"
   version="1.1"
   id="svg44"
   sodipodi:docname="search.svg"
   inkscape:version="1.2.2 (b0a8486541, 2022-12-01)"
   xmlns:inkscape="http://www.inkscape.org/namespaces/inkscape"
   xmlns:sodipodi="http://sodipodi.sourceforge.net/DTD/sodipodi-0.dtd"
   xmlns="http://www.w3.org/2000/svg"
   xmlns:svg="http://www.w3.org/2000/svg">
  <defs
     id="defs48" />
  <sodipodi:namedview
     id="namedview46"
     pagecolor="#ffffff"
     bordercolor="#000000"
     borderopacity="0.25"
     inkscape:showpageshadow="2"
     inkscape:pageopacity="0.0"
     inkscape:pagecheckerboard="0"
     inkscape:deskcolor="#d1d1d1"
     showgrid="false"
     inkscape:zoom="35.545455"
     inkscape:cx="11.028133"
     inkscape:cy="11"
     inkscape:window-width="1920"
     inkscape:window-height="1011"
     inkscape:window-x="0"
     inkscape:window-y="0"
     inkscape:window-maximized="1"
     inkscape:current-layer="svg44" />
  <path
     d="M15.7233 13.8365H14.7296L14.3774 13.4969C15.6101 12.0629 16.3522 10.2013 16.3522 8.1761C16.3522 3.66038 12.6918 0 8.1761 0C3.66038 0 0 3.66038 0 8.1761C0 12.6918 3.66038 16.3522 8.1761 16.3522C10.2013 16.3522 12.0629 15.6101 13.4969 14.3774L13.8365 14.7296V15.7233L20.1258 22L22 20.1258L15.7233 13.8365ZM8.1761 13.8365C5.04403 13.8365 2.51572 11.3082 2.51572 8.1761C2.51572 5.04403 5.04403 2.51572 8.1761 2.51572C11.3082 2.51572 13.8365 5.04403 13.8365 8.1761C13.8365 11.3082 11.3082 13.8365 8.1761 13.8365Z"
     fill="white"
     id="path42"
     style="fill:#000000" />
</svg>
